<?xml version="1.0" encoding="utf-8"?>
<!-- Generator: Adobe Illustrator 16.0.0, SVG Export Plug-In . SVG Version: 6.00 Build 0)  -->
<!DOCTYPE svg PUBLIC "-//W3C//DTD SVG 1.1//EN" "http://www.w3.org/Graphics/SVG/1.1/DTD/svg11.dtd">
<svg version="1.1" id="Layer_1" xmlns="http://www.w3.org/2000/svg" xmlns:xlink="http://www.w3.org/1999/xlink" x="0px" y="0px"
	 width="506.061px" height="94.949px" viewBox="0 0 506.061 94.949" enable-background="new 0 0 506.061 94.949"
	 xml:space="preserve">
<g>
	<g>
		<path fill="#FFC96A" d="M134.006,23.33H71.899c-1.451,0-2.627-1.177-2.627-2.628s1.176-2.628,2.627-2.628h9.711l-6.598-5.607
			c-7.971-7.961-19.744-1.301-19.865-1.233L19.729,28.081v48.706l15.877,7.247c3.092,0.943,8.508,2.384,10.398,2.384h73.77
			c1.559-0.063,4.258-0.657,5.02-1.597c2.932-3.612,1.334-5.871,0.811-6.612c-0.381-0.509-2.314-1.919-3.646-2.191h-41.93
			c-1.453,0-2.629-1.177-2.629-2.628s1.176-2.628,2.629-2.628h17.49c6.494,0,7.018-0.653,7.57-1.346
			c1.506-1.884,2.125-3.72,1.895-5.614c-0.33-2.693-2.297-4.881-3.314-5.85H79.727c-1.453,0-2.629-1.176-2.629-2.627
			s1.176-2.628,2.629-2.628h25.396c1.563-1.454,4.135-4.511,3.969-7.556c-0.123-2.221-1.713-4.354-4.693-6.351H80.028
			c-1.453,0-2.629-1.177-2.629-2.628s1.176-2.628,2.629-2.628h55.4c1.84,0,3.066-0.977,3.309-1.332
			c1.246-1.865,1.586-3.549-0.398-6.626C137.528,24.318,135.149,23.541,134.006,23.33z"/>
		<rect x="9.223" y="29.049" fill="#5FBF8B" width="5.25" height="46.8"/>
		<path fill="#171C1E" d="M134.614,18.104c-0.127-0.02-0.258-0.03-0.389-0.03h-44.5L78.573,8.606
			c-8.51-8.515-20.764-4.979-25.867-2.021L16.506,23.793h-9.91c-1.453,0-2.629,1.177-2.629,2.628v52.057
			c0,1.451,1.176,2.627,2.629,2.627h9.936l17.051,7.782c0.102,0.048,0.209,0.087,0.318,0.122c0.887,0.271,8.766,2.665,12.104,2.665
			l73.863-0.001c1.055-0.039,6.445-0.385,9.006-3.541c3.459-4.261,3.832-8.984,1.025-12.953c-1.094-1.552-4.42-3.972-7.348-4.39
			c-0.123-0.019-0.25-0.027-0.373-0.027h-11.645c1.424-2.431,1.986-4.978,1.666-7.597c-0.352-2.889-1.748-5.293-3.098-7.016
			c2.021-1.99,5.502-6.178,5.236-11.264c-0.111-2.173-0.881-4.208-2.273-6.096h23.363c3.598,0,6.443-1.835,7.67-3.657
			c2.658-3.972,2.551-7.913-0.342-12.402C140.393,19.065,135.2,18.191,134.614,18.104z M14.473,75.849h-5.25v-46.8h5.25V75.849z
			 M138.737,32.203c-0.242,0.355-1.469,1.332-3.309,1.332h-55.4c-1.453,0-2.629,1.177-2.629,2.628s1.176,2.628,2.629,2.628h24.371
			c2.98,1.998,4.57,4.13,4.693,6.351c0.166,3.045-2.406,6.102-3.969,7.556H79.727c-1.453,0-2.629,1.177-2.629,2.628
			s1.176,2.627,2.629,2.627h23.941c1.018,0.969,2.984,3.156,3.314,5.85c0.23,1.895-0.389,3.73-1.895,5.614
			c-0.553,0.692-1.076,1.346-7.57,1.346h-17.49c-1.453,0-2.629,1.177-2.629,2.628s1.176,2.628,2.629,2.628h41.93
			c1.332,0.272,3.266,1.683,3.646,2.191c0.523,0.741,2.121,3-0.811,6.612c-0.762,0.939-3.461,1.533-5.02,1.597h-73.77
			c-1.891,0-7.307-1.44-10.398-2.384l-15.877-7.247V28.081l35.418-16.847c0.121-0.068,11.895-6.729,19.865,1.233l6.598,5.607h-9.711
			c-1.451,0-2.627,1.177-2.627,2.628s1.176,2.628,2.627,2.628h62.107c1.143,0.21,3.521,0.988,4.332,2.247
			C140.323,28.653,139.983,30.338,138.737,32.203z"/>
	</g>
	<g opacity="0.1">
		<path d="M129.946,77.796c-0.086-0.188-0.168-0.377-0.26-0.563c-0.32-0.646-0.658-1.287-1.037-1.902
			c-0.709,0.186-1.479,0.211-2.246,0.059c-0.688-0.135-1.385-0.211-2.088-0.244c0.613,0.413,1.115,0.832,1.289,1.063
			c0.523,0.741,2.121,3-0.811,6.612c-0.762,0.939-3.461,1.533-5.02,1.597h-73.77c-1.891,0-7.307-1.44-10.398-2.384l-15.877-7.247
			V26.081L55.147,9.234c0.121-0.068,11.895-6.729,19.865,1.233l6.598,5.607h-9.711c-1.451,0-2.627,1.177-2.627,2.628
			s1.176,2.628,2.627,2.628h15.6c-0.117-0.179-0.229-0.368-0.328-0.58c-2.637-5.566-6.883-10.773-12.219-13.992
			C69.614,3.539,63.417,3.754,57.52,5.39c-7.43,2.061-13.67,6.195-20.676,9.222c-5.75,2.484-12.055,4.617-16.932,8.674
			c-1.072,0.893-2.268,1.167-3.383,1.023c-0.783,0.339-1.725,0.416-2.795,0.081c-2.08-0.651-4.109-0.287-6.131,0.262
			c-0.188,0.345-0.406,0.676-0.691,0.967c-0.15,0.153-0.283,0.322-0.422,0.485c-0.244,0.353-0.467,0.719-0.66,1.104
			c0.617,0.745,1.006,1.684,1.006,2.708c0,1.84-1.215,3.426-2.869,4.025v42.535c0,1.451,1.176,2.627,2.629,2.627h9.936l17.051,7.782
			c0.102,0.048,0.209,0.087,0.318,0.122c0.887,0.271,8.766,2.665,12.104,2.665l73.863-0.001c0.932-0.035,5.25-0.313,8.01-2.556
			c-0.973-1.645-0.77-3.837,0.631-5.236c0.059-0.059,0.127-0.1,0.189-0.153c-0.133-0.631-0.146-1.275,0.039-1.952
			C128.946,79.015,129.375,78.333,129.946,77.796z M14.473,73.849h-5.25v-46.8h5.25V73.849z"/>
		<path d="M139.79,22.646c-1.285-0.382-2.596-0.625-3.926-0.763c0.986,0.39,2,0.957,2.475,1.694
			c1.984,3.077,1.645,4.761,0.398,6.626c-0.242,0.355-1.469,1.332-3.309,1.332h-55.4c-1.453,0-2.629,1.177-2.629,2.628
			s1.176,2.628,2.629,2.628h24.371c2.98,1.998,4.57,4.13,4.693,6.351c0.166,3.046-2.406,6.102-3.969,7.556H79.727
			c-1.453,0-2.629,1.177-2.629,2.628s1.176,2.627,2.629,2.627h23.941c1.018,0.969,2.984,3.156,3.314,5.85
			c0.23,1.895-0.389,3.73-1.895,5.614c-0.553,0.692-1.076,1.346-7.57,1.346h-17.49c-1.453,0-2.629,1.177-2.629,2.628
			s1.176,2.628,2.629,2.628h27.32c-0.158-0.972,0.012-1.998,0.488-2.935c0.697-1.367,1.609-2.767,2.672-3.869
			c0.242-0.253,0.523-0.445,0.814-0.614c-0.35-0.862-0.453-1.844-0.252-2.824c-0.254,1.233-0.107-1.291,0.021-0.573
			c-0.143-0.797-0.32-1.593-0.605-2.352c-0.182-0.486-0.408-0.959-0.859-1.595c0.389,0.548-1.047-0.85-0.25-0.298
			c-1.922-1.33-2.793-3.739-1.541-5.875c0.475-0.81,1.26-1.438,2.152-1.799c-0.039-0.229-0.072-0.461-0.072-0.701
			c0-1.187,0.506-2.271,1.307-3.055c0.061-0.574,0.248-1.172,0.613-1.778c1.047-1.741,0.32-3.673-0.666-5.333
			c-2.836-4.772,4.59-9.089,7.414-4.334c0.139,0.232,0.27,0.469,0.396,0.707h16.447c3.598,0,6.443-1.835,7.67-3.657
			c0.869-1.298,1.438-2.593,1.715-3.905c-0.104-0.086-0.205-0.175-0.305-0.274C142.676,27.134,140.815,25.017,139.79,22.646z"/>
	</g>
	<g>
		<path fill="#171C1E" d="M161.989,35.365h11.334l9.232,14.985l9.236-14.985h11.336v38.706h-10.674V51.843l-9.898,15.15h-0.221
			l-9.84-15.096v22.174h-10.506V35.365z"/>
		<path fill="#171C1E" d="M221.752,59.583l-14.764-24.218h12.221l7.963,14.101l8.016-14.101h11.998l-14.707,24.053v14.653h-10.727
			V59.583z"/>
		<path fill="#171C1E" d="M246.184,54.829v-0.111c0-11.279,8.627-20.126,20.35-20.126c7.906,0,12.992,3.318,16.422,8.018
			l-8.074,6.247c-2.211-2.708-4.754-4.533-8.461-4.533c-5.416,0-9.232,4.644-9.232,10.285v0.109c0,5.807,3.816,10.341,9.232,10.341
			c4.037,0,6.416-1.88,8.738-4.7l8.074,5.751c-3.65,5.031-8.572,8.735-17.086,8.735C255.086,74.845,246.184,66.386,246.184,54.829z"
			/>
		<path fill="#171C1E" d="M301.469,35.089h10.342l16.477,38.982h-11.5l-2.766-6.968h-14.984l-2.764,6.968h-11.225L301.469,35.089z
			 M310.87,58.755l-4.311-10.949l-4.371,10.949H310.87z"/>
		<path fill="#171C1E" d="M332.592,35.365h16.645c9.73,0,16.033,5.032,16.033,13.547v0.112c0,9.178-7.021,13.988-16.588,13.988
			h-5.363v11.059h-10.727V35.365z M348.461,54.608c3.76,0,6.139-2.046,6.139-5.088v-0.11c0-3.317-2.379-5.031-6.195-5.031h-5.086
			v10.229H348.461z"/>
		<path fill="#171C1E" d="M379.803,44.765h-11.557v-9.4h33.895v9.4h-11.609v29.306h-10.729V44.765z"/>
		<path fill="#171C1E" d="M415.793,35.089h10.342l16.475,38.982h-11.498l-2.768-6.968h-14.982l-2.766,6.968h-11.223L415.793,35.089z
			 M425.194,58.755l-4.311-10.949l-4.371,10.949H425.194z"/>
		<path fill="#171C1E" d="M447.194,35.365h10.727v38.706h-10.727V35.365z"/>
		<path fill="#171C1E" d="M465.547,35.365h10.008l15.922,20.459V35.365h10.617v38.706h-9.344l-16.588-21.232v21.232h-10.615V35.365z
			"/>
	</g>
</g>
</svg>
